# xmcd CD database file
#
# Track frame offsets:
#	150
#	13032
#	27452
#	44215
#	65250
#	83072
#	103113
#	121071
#	139199
#	157297
#	174795
#	191819
#	210457
#	228750
#	245254
#	261476
#	278512
#	295650
#	312371
#	330449
#
# Disc length: 4737 seconds
#
# Revision: 1
# Processed by: cddbd v1.5.2PL0 Copyright (c) Steve Scherf et al.
# Submitted via: CDex 1.51
#
DISCID=1b127f14
DTITLE=Various Artist - ZM-POP-B-Disc-3
DYEAR=1900
DGENRE=Blues
TTITLE0=Icona Pop Ft 2 Chains - I Love It
TTITLE1=Jason Derulo Ft 2 Chains - Talk Dirty
TTITLE2=John Newman - Cheating
TTITLE3=John Newman - Losing Sleep
TTITLE4=John Newman - Love Me Again
TTITLE5=Justin Bieber - Heatbreaker
TTITLE6=Katy Perry - Roar
TTITLE7=Katy Perry - Unconditionally
TTITLE8=Katy Perry - Walking On Air
TTITLE9=Klangkarussell Ft Will Heard - Sonnentanz (sun don't shine)
TTITLE10=Lady Ga Ga - Applause
TTITLE11=Lady Ga Ga - Venus
TTITLE12=Lady Ga Ga Ft R Kelly - Do What You Want
TTITLE13=Lawson - Juliet
TTITLE14=Lawson - Learn To Love Again
TTITLE15=Lawson Ft B.O.B - Brokenhearted
TTITLE16=Lily Allen - Hard Out Here
TTITLE17=Lily Allen - Somewhere Only We Know
TTITLE18=Little Mix - Move
TTITLE19=Mackmore and Ryan Lewis - Same Love
EXTD=
EXTT0=
EXTT1=
EXTT2=
EXTT3=
EXTT4=
EXTT5=
EXTT6=
EXTT7=
EXTT8=
EXTT9=
EXTT10=
EXTT11=
EXTT12=
EXTT13=
EXTT14=
EXTT15=
EXTT16=
EXTT17=
EXTT18=
EXTT19=
PLAYORDER=
